<svg version="1.1" xmlns="http://www.w3.org/2000/svg" viewBox="0 0 404.9106607242115 442.74285723922776" width="404.9106607242115" height="442.74285723922776"><!-- svg-source:excalidraw --><metadata></metadata><defs><style class="style-fonts">
      </style></defs><rect x="0" y="0" width="404.9106607242115" height="442.74285723922776" fill="#ffffff"></rect><g stroke-linecap="round"><g transform="translate(70.31219729581846 11.77426097115503) rotate(0 2.800018310546875 180.40000915527344)"><path d="M1.15 -0.48 C1.87 59.86, 4.43 300.72, 5.34 360.92 M0.29 -1.77 C0.75 58.87, 3.24 301.89, 4.25 362.51" stroke="#1e1e1e" stroke-width="4" fill="none"></path></g></g><mask></mask><g stroke-linecap="round"><g transform="translate(15.912172881755964 53.374267074670655) rotate(0 174 -0.4000091552734375)"><path d="M1.06 -1.04 C59.11 -1.44, 290.75 -1.36, 348.57 -1.5 M0.16 1.02 C58.07 0.69, 290.08 0.04, 347.93 -0.33" stroke="#1e1e1e" stroke-width="4" fill="none"></path></g></g><mask></mask><g stroke-linecap="round"><g transform="translate(77.51220950284971 121.37426707467066) rotate(0 28 -32.80000305175781)"><path d="M0.12 0.92 C9.52 -10.07, 47.16 -54.11, 56.32 -65.05 M-1.28 0.36 C8 -11.07, 45.75 -55.73, 55.54 -66.88" stroke="#1e1e1e" stroke-width="4" fill="none"></path></g></g><mask></mask><g stroke-linecap="round"><g transform="translate(10.312197295818464 430.17425486763943) rotate(0 192 0)"><path d="M0.75 -0.53 C64.98 -0.65, 320.7 -0.45, 384.6 -0.37 M-0.31 1.8 C63.87 1.82, 320.01 1.06, 383.96 0.97" stroke="#1e1e1e" stroke-width="4" fill="none"></path></g></g><mask></mask><g stroke-linecap="round"><g transform="translate(74.31219729581846 373.3742670746707) rotate(0 -19.20001220703125 29.20001220703125)"><path d="M0.75 0.94 C-5.75 10.93, -32.1 49.9, -38.75 59.37 M-0.31 0.39 C-7.03 10.11, -33.83 48.03, -39.89 57.75" stroke="#1e1e1e" stroke-width="4" fill="none"></path></g></g><mask></mask><g stroke-linecap="round"><g transform="translate(77.51220950284971 370.9742426606082) rotate(0 18.399993896484375 29.20001220703125)"><path d="M0.89 -0.39 C6.97 9.22, 30.61 48.54, 36.41 58.4 M-0.1 -1.64 C5.79 8.11, 28.9 50.23, 35.25 59.93" stroke="#1e1e1e" stroke-width="4" fill="none"></path></g></g><mask></mask></svg>