<svg version="1.1" xmlns="http://www.w3.org/2000/svg" viewBox="0 0 404.9106607242115 442.74285723922776" width="404.9106607242115" height="442.74285723922776"><!-- svg-source:excalidraw --><metadata></metadata><defs><style class="style-fonts">
      </style></defs><rect x="0" y="0" width="404.9106607242115" height="442.74285723922776" fill="#ffffff"></rect><g stroke-linecap="round"><g transform="translate(70.31219729581846 11.77426097115503) rotate(0 2.800018310546875 180.40000915527344)"><path d="M1.15 -0.48 C1.87 59.86, 4.43 300.72, 5.34 360.92 M0.29 -1.77 C0.75 58.87, 3.24 301.89, 4.25 362.51" stroke="#1e1e1e" stroke-width="4" fill="none"></path></g></g><mask></mask><g stroke-linecap="round"><g transform="translate(15.912172881755964 53.374267074670655) rotate(0 174 -0.4000091552734375)"><path d="M1.06 -1.04 C59.11 -1.44, 290.75 -1.36, 348.57 -1.5 M0.16 1.02 C58.07 0.69, 290.08 0.04, 347.93 -0.33" stroke="#1e1e1e" stroke-width="4" fill="none"></path></g></g><mask></mask><g stroke-linecap="round"><g transform="translate(77.51220950284971 121.37426707467066) rotate(0 28 -32.80000305175781)"><path d="M0.12 0.92 C9.52 -10.07, 47.16 -54.11, 56.32 -65.05 M-1.28 0.36 C8 -11.07, 45.75 -55.73, 55.54 -66.88" stroke="#1e1e1e" stroke-width="4" fill="none"></path></g></g><mask></mask><g stroke-linecap="round"><g transform="translate(10.312197295818464 430.17425486763943) rotate(0 192 0)"><path d="M0.75 -0.53 C64.98 -0.65, 320.7 -0.45, 384.6 -0.37 M-0.31 1.8 C63.87 1.82, 320.01 1.06, 383.96 0.97" stroke="#1e1e1e" stroke-width="4" fill="none"></path></g></g><mask></mask><g stroke-linecap="round"><g transform="translate(74.31219729581846 373.3742670746707) rotate(0 -19.20001220703125 29.20001220703125)"><path d="M0.75 0.94 C-5.75 10.93, -32.1 49.9, -38.75 59.37 M-0.31 0.39 C-7.03 10.11, -33.83 48.03, -39.89 57.75" stroke="#1e1e1e" stroke-width="4" fill="none"></path></g></g><mask></mask><g stroke-linecap="round"><g transform="translate(77.51220950284971 370.9742426606082) rotate(0 18.399993896484375 29.20001220703125)"><path d="M0.89 -0.39 C6.97 9.22, 30.61 48.54, 36.41 58.4 M-0.1 -1.64 C5.79 8.11, 28.9 50.23, 35.25 59.93" stroke="#1e1e1e" stroke-width="4" fill="none"></path></g></g><mask></mask><g stroke-linecap="round"><g transform="translate(261.5122095028497 53.374267074670655) rotate(0 -0.800018310546875 29.199996948242188)"><path d="M-0.06 1.1 C-0.42 10.99, -2.27 49.28, -2.39 59 M-1.54 0.64 C-1.51 10.2, -0.17 47.7, -0.09 57.19" stroke="#1e1e1e" stroke-width="4" fill="none"></path></g></g><mask></mask><g stroke-linecap="round" transform="translate(224.71216067472471 108.57424876412378) rotate(0 38.800018310546875 35.600006103515625)"><path d="M37.85 -0.34 C45.03 -0.88, 54.44 2.2, 60.74 6.21 C67.03 10.22, 73.2 17.08, 75.61 23.72 C78.03 30.37, 77.64 39.21, 75.25 46.09 C72.87 52.97, 67.34 60.84, 61.31 65 C55.27 69.15, 46.43 71.01, 39.05 71.02 C31.67 71.03, 23.13 69.01, 17.02 65.05 C10.9 61.09, 5 53.94, 2.35 47.24 C-0.31 40.53, -0.98 31.45, 1.1 24.84 C3.18 18.22, 7.19 11.7, 14.83 7.54 C22.47 3.38, 40.2 0.45, 46.94 -0.13 C53.68 -0.71, 55.42 3.38, 55.26 4.07 M43.42 -0.16 C50.46 0.28, 58.66 5.3, 64.3 9.89 C69.94 14.49, 75.69 20.71, 77.27 27.43 C78.85 34.14, 77.11 43.7, 73.8 50.19 C70.48 56.68, 64.01 62.69, 57.36 66.36 C50.71 70.03, 41.17 72.69, 33.89 72.23 C26.61 71.77, 19.03 68.14, 13.7 63.6 C8.37 59.05, 3.78 52.19, 1.88 44.97 C-0.02 37.75, -0.48 27.01, 2.32 20.28 C5.12 13.55, 12.24 7.82, 18.7 4.6 C25.15 1.38, 37.38 1.49, 41.05 0.95 C44.73 0.41, 40.59 1.03, 40.76 1.38" stroke="#1e1e1e" stroke-width="4" fill="none"></path></g></svg>